<?xml version="1.0" standalone="no"?>
<!DOCTYPE svg PUBLIC "-//W3C//DTD SVG 20010904//EN"
 "http://www.w3.org/TR/2001/REC-SVG-20010904/DTD/svg10.dtd">
<svg version="1.0" xmlns="http://www.w3.org/2000/svg"
 width="24.000000pt" height="23.000000pt" viewBox="0 0 24.000000 23.000000"
 preserveAspectRatio="xMidYMid meet">

<g transform="translate(0.000000,23.000000) scale(0.100000,-0.100000)"
fill="#000000" stroke="none">
<path d="M100 146 c-17 -22 -8 -59 18 -72 l23 -12 -33 -26 c-28 -22 -30 -26
-12 -26 19 0 51 27 69 59 5 9 4 12 -3 7 -7 -4 -12 -1 -12 7 0 8 -9 17 -21 20
-12 3 -18 10 -14 16 9 16 35 13 35 -4 0 -8 7 -15 15 -15 18 0 20 31 3 48 -16
16 -53 15 -68 -2z"/>
</g>
</svg>
